<svg xmlns="http://www.w3.org/2000/svg" xmlns:xlink="http://www.w3.org/1999/xlink" width="250" height="50" viewBox="0 0 187.5 37.5" version="1.2"><defs><symbol overflow="visible" id="a"><path d="M20.594-18.133c-.207 0-.582.02-3.907 3.664-2.03 2.235-4.55 5.168-7.085 8.23-.489.583-1.223 1.485-2.086 2.555-.282-1.015-.582-2.011-.864-3.003C4.414-14.47 3.91-15.84 3.215-15.88c-.094 0-.36.02-.508.395a.37.37 0 00.188.472.494.494 0 00.32-.02c.543.903 1.707 4.942 2.742 8.548a729.4 729.4 0 011.016 3.496C3.719 1.07-.957 7.14-2.18 9.996c-.355.863-.394 1.39-.132 1.711.152.168.34.242.582.242.113 0 .246-.015.378-.054.188-.04.301-.247.262-.434-.055-.188-.246-.316-.433-.262-.13.04-.207.04-.243.02 0-.059-.02-.246.188-.754C-.79 8.457 2.426 3.852 7.215-2.16c.02.035.02.074.039.113 2.5 8.379 4 9.621 5.016 9.79.113.019.207.019.3.019.36 0 .657-.114.922-.32.508-.415.79-1.223.863-2.442 0-.191-.148-.379-.335-.379a.363.363 0 00-.395.34c-.059 1.238-.36 1.726-.586 1.918-.168.129-.375.187-.656.148-.79-.132-2.219-1.84-4.434-9.28-.058-.188-.113-.395-.172-.583.641-.809 1.317-1.637 2.012-2.48 5.563-6.786 10.184-11.801 10.899-12.102.171-.039.3-.187.3-.375a.363.363 0 00-.394-.34zm0 0"/></symbol><symbol overflow="visible" id="b"><path d="M4.02-6.973C3.53-7.12 2.254-7.027.922-3.137c.75-4.246.883-5 .863-5.133a.344.344 0 00-.375-.335c-.187.02-.34.168-.34.355-.02.266-.488 2.8-.996 5.73-.113.641-.242 1.297-.355 1.973-.266.098-.528.192-.79.266a.36.36 0 00-.245.449c.058.187.246.3.433.246.149-.039.301-.094.45-.133-.805 4.586-1.727 9.828-2.16 12.703-.02.188.113.375.3.395.02 0 .04.02.059.02.168 0 .336-.133.355-.301.469-2.782 1.766-9.38 2.742-13.38.582-.3 1.13-.64 1.637-1.034.809-.657 1.84-1.707 2.2-3.082.355-1.258.054-2.348-.68-2.575zm-.016 2.387c-.36 1.336-1.543 2.52-2.895 3.348.168-.64.32-1.188.45-1.582.976-2.875 1.879-3.457 2.199-3.457h.058c.243.078.45.734.188 1.691zm0 0"/></symbol><symbol overflow="visible" id="c"><path d="M5.523-17.605a.556.556 0 00-.507-.227c-1.07.187-2.215 4.191-2.536 5.41C1.54-8.832.355-3.738-.602.828c-.449 2.16-.808 3.98-1.035 5.297-.375 2.219-.316 2.5.04 2.594.038.02.074.02.113.02.34 0 .507-.454.675-.942.059-.188-.035-.395-.226-.45-.016-.019-.035-.019-.055-.019C-.695 4.621.922-3.25 2.574-9.848c0-.015.02-.035.04-.054 2.44-3.871 3.398-6.953 2.91-7.703zm-2.308 5.222c.71-2.648 1.351-3.926 1.691-4.453-.078.695-.492 2.2-1.691 4.453zm0 0"/></symbol><symbol overflow="visible" id="d"><path d="M6.8-4.078a.355.355 0 00-.507.058c-.79 1.012-2.082 1.86-3.078 1.672.015-.132.035-.265.035-.394.133-2.125-.523-2.559-.922-2.633-.45-.094-.918.246-1.144.809a.285.285 0 00-.301.039C.133-4.06-.488-2.855-.148-1.56.074-.789.602-.3 1.297-.3c.656 0 1.351-.488 1.71-1.351 1.313.28 2.891-.696 3.852-1.918a.358.358 0 00-.058-.508zM1.317-1.016h-.02c-.468-.02-.675-.468-.734-.73-.187-.64-.035-1.524.489-2.012.039.637.394 1.332 1.297 1.824-.262.598-.711.918-1.032.918zm1.22-1.765c-.016.039-.016.074-.016.113-.715-.469-.829-1.07-.696-1.543.094-.297.281-.45.375-.45.094.02.414.376.336 1.88zm0 0"/></symbol><symbol overflow="visible" id="e"><path d="M8.25-4.246c-.188-.094-.414-.02-.488.168C5.598.469 3.55 2.8 3.102 2.727c-.04-.02-.696-.66 1.425-7.18.059-.168.188-.563-.113-.77-.281-.226-.598-.02-1.125.336-.562.36-1.336.867-1.937.79 1.918-3.305 1.73-4.04 1.296-4.321-.675-.395-1.652.75-2.101 1.41-.922 1.426-.902 2.723.074 3.383.996.695 2.293-.152 3.063-.66l.035-.035c-.73 2.308-1.2 4.133-1.371 5.39-.207 1.39-.055 2.125.472 2.332.094.016.168.035.262.035 1.504 0 4.113-4.62 5.336-7.195.074-.187 0-.414-.168-.488zM.656-5.543C.922-6.559 1.805-7.496 2.2-7.723c-.039.301-.246 1.145-1.449 3.23-.129-.206-.223-.523-.094-1.05zm0 0"/></symbol><symbol overflow="visible" id="f"><path d="M6.352-4.191a.364.364 0 00-.508.093C4.434-2.125 3.289-.883 2.16-.074 1.598.32 1.05.395.695.133.47-.04-.227-.79.582-3.418c1.824-1.504 2.82-2.934 2.555-3.684a.613.613 0 00-.563-.378c-.75.02-1.898 1.316-2.648 3.742C-.996-.75-.246.34.28.715c.266.207.563.3.903.3.433 0 .921-.171 1.39-.507 1.203-.863 2.387-2.145 3.852-4.192a.379.379 0 00-.074-.507zM2.426-6.688c-.078.297-.395.899-1.281 1.801.492-1.09 1.015-1.613 1.28-1.8zm0 0"/></symbol><symbol overflow="visible" id="h"><path d="M15.973-8.68a.348.348 0 00-.395-.32 25.492 25.492 0 00-3.816.75c.453-1.992.883-3.852 1.261-5.39.637-2.669.524-4.098-.378-4.38-1.09-.34-2.575 1.598-3.157 3.137-.636 1.75-.281 3.121.961 3.664.188.094.395 0 .469-.168.094-.187 0-.394-.168-.488-1.203-.527-.867-1.953-.566-2.762.601-1.617 1.824-2.82 2.254-2.687.19.054.527.808-.13 3.512a744.7 744.7 0 00-1.355 5.808c-1.707.563-3.23 1.332-4.547 2.293C4.36-4.227 2.836-2.293 1.918 0 .246 4.113.883 8.55 2.441 10.45c.735.882 1.579 1.331 2.446 1.331.168 0 .355-.02.543-.054 1.316-.32 2.332-1.825 2.84-4.211.355-1.653 1.878-8.72 3.304-14.977a25.275 25.275 0 014.078-.824c.207-.02.356-.188.32-.395zM7.574 7.367c-.453 2.102-1.281 3.399-2.332 3.664-.734.168-1.539-.207-2.234-1.035C1.203 7.796 1.39 3.23 2.574.262c1.07-2.61 3.324-5.73 8.192-7.457A1146.943 1146.943 0 007.574 7.367zm0 0"/></symbol><symbol overflow="visible" id="i"><path d="M7.855-4.172c-.171-.074-.394 0-.472.168C5.957-1.09 4.887-.168 4.379-.262 4.172-.3 3.496-.695 3.324-3.984a.345.345 0 00-.242-.32c-.152-.036-.32 0-.394.132a4.56 4.56 0 00-.34.453c-.47.637-1.09 1.5-1.84 2.309a1.457 1.457 0 01-.262.246C.113-1.824.81-4.34 1.918-5.13c.316-.226.75-.394 1.332.281.133.149.36.168.508.04.152-.114.168-.36.058-.508-.714-.829-1.39-.809-1.843-.66C.527-5.47-.45-2.689-.488-1.41c-.02.527.133.863.433.976.47.188.938-.316 1.09-.488a21.993 21.993 0 001.633-2.027C2.875-.81 3.383.26 4.227.449c.078 0 .152.02.226.02 1.277 0 2.649-2.235 3.57-4.153a.355.355 0 00-.168-.488zm0 0"/></symbol><symbol overflow="visible" id="j"><path d="M9.434-4.098a.36.36 0 00-.508.04c-.77.902-1.805 1.351-2.649 1.128-.695-.191-1.203-.867-1.39-1.879-.04-.171-.207-.285-.38-.285a.344.344 0 00-.335.301c-.395 2.82-2.633 6.184-3.703 6.54-.13.038-.168.019-.168 0C.207 1.671-.434.788 1.559-5.13c.058-.187-.036-.394-.223-.453-.191-.074-.395.039-.473.227-2.18 6.52-1.351 7.347-1.09 7.609.114.094.301.246.582.246.094 0 .208-.02.34-.074.696-.227 1.633-1.223 2.48-2.633.641-1.05 1.13-2.18 1.43-3.23.356.617.864 1.03 1.485 1.203 1.105.28 2.422-.246 3.379-1.356a.36.36 0 00-.035-.508zm0 0"/></symbol><symbol overflow="visible" id="k"><path d="M18.34-4.285c-.113-.168-.34-.207-.488-.094a147.023 147.023 0 00-5.223 3.871c-1.074-1.765-3.93-2.93-7.742-4.472-.489-.188-.977-.395-1.485-.602-1.504-.602-2.03-1.54-1.617-2.836.563-1.805 2.93-4.191 6.145-6.238 3.062-1.938 6.07-3.028 7.476-2.707.453.093.961.36.809 1.41-.035.187.113.375.3.414.208.02.395-.113.415-.32.226-1.598-.75-2.067-1.352-2.22-3.422-.769-13.098 5.04-14.488 9.434-.508 1.657.207 2.989 2.031 3.739.504.207 1.012.414 1.5.601 4.098 1.657 6.617 2.746 7.441 4.23C5.41 5.13 2.033 8.853 2.595 10.45c.094.262.375.656 1.164.656h.187c2.52-.187 8.004-3.945 9.059-9.265a3.399 3.399 0 00-.059-1.692 193.736 193.736 0 015.32-3.925c.169-.133.208-.356.075-.508zM12.29 1.71c-1.017 5.074-6.333 8.512-8.4 8.68-.187 0-.546 0-.6-.188-.208-.562.843-2.16 2.687-4.02C7.535 4.587 9.66 2.728 12.309.642c.074.336.054.675-.02 1.07zm0 0"/></symbol><symbol overflow="visible" id="l"><path d="M7.48-4.059a.366.366 0 00-.492.133C5.203-1.07 3.703.207 3.383.094c0 0-.375-.207-.02-2.367.133-.735.188-1.145-.168-1.297-.34-.133-.547.152-.941.715-.32.449-.75 1.05-1.219 1.464-.058.04-.265.227-.36.153-.28-.227-.335-1.45.321-2.578.113-.168.04-.395-.133-.504a.364.364 0 00-.488.129C-.375-2.875-.449-1.238.207-.695c.168.148.637.414 1.297-.133.43-.375.808-.863 1.11-1.277C2.347-.355 2.5.527 3.12.77c.094.039.188.039.262.039 1.426 0 3.738-3.61 4.207-4.36a.368.368 0 00-.11-.508zm0 0"/></symbol><symbol overflow="visible" id="m"><path d="M15.86-11.086c-.247-.34-1.337-.547-13.005-.281.375-1.524.715-2.895 1.016-4.004a.357.357 0 00-.246-.45.363.363 0 00-.45.243c-.32 1.183-.675 2.613-1.07 4.23-1.035.016-2.16.036-3.382.075-1.672.035-2.989.074-3.496.074-.207 0-.375.168-.375.355 0 .207.168.38.375.38.527-.02 1.843-.04 3.515-.095.883-.02 1.973-.039 3.192-.078A449.405 449.405 0 00-.621.883a250.485 250.485 0 00-1.41 7.328 37.093 37.093 0 00-.336 2.273c-.074.715-.113 1.13.242 1.258.059 0 .094.02.152.02.32 0 .489-.45.637-.864a.355.355 0 00-.203-.468c-.04 0-.059-.02-.098-.02C-1.445 8.945-.883 5.656.207.47a348.975 348.975 0 012.48-11.121c5.168-.114 11.876-.207 12.645.054.133.114.3.114.453.02a.379.379 0 00.074-.508zm0 0"/></symbol><symbol overflow="visible" id="n"><path d="M5.488-4.266c-.172-.113-.379-.054-.488.114C3.738-2.125 1.637-.207.996-.47c-.074-.039-.676-.394.149-3.57a.388.388 0 00-.262-.453.388.388 0 00-.45.265C-.246-1.578-.147-.168.696.188a.943.943 0 00.395.074c1.41 0 3.57-2.516 4.527-4.04a.364.364 0 00-.129-.488zM1.051-5.789c.96.059.941-1.145.172-.883-.395.113-.903.848-.172.883zm0 0"/></symbol><symbol overflow="visible" id="o"><path d="M7.555-4.191a.354.354 0 00-.489.152c-.453.77-1.636 2.855-2.312 2.781-.133-.02-.508-.207-.883-1.523-.262-.922-.621-1.785-1.316-1.824-.508-.036-1.07.359-1.934 1.976.223-.808.469-1.617.656-2.277.075-.242.133-.45.188-.657a.363.363 0 00-.242-.449.365.365 0 00-.453.262c-.055.188-.114.414-.188.64C.094-3.436-.641-.901-.828.64a.352.352 0 00.265.376c.036.02.055.02.094.02A.367.367 0 00-.133.808c1.77-4.399 2.48-4.7 2.653-4.7.035 0 .3.075.656 1.317.375 1.297.863 1.953 1.504 2.027.957.113 1.82-1.07 3.004-3.137.113-.187.039-.394-.13-.507zm0 0"/></symbol><symbol overflow="visible" id="p"><path d="M8.363-4.305a.363.363 0 00-.508.04C6.371-2.556 4.04.167 3.665.655c-.114.133-.228.285-.34.434a6.062 6.062 0 00-.583-1.11C1.84-1.41 1.035-2.727 1.07-3.645a2.149 2.149 0 011.035-1.75c.508-.3 1.07-.355 1.504-.148.168.074.395 0 .47-.187a.334.334 0 00-.169-.47c-.64-.3-1.469-.226-2.18.188C.902-5.504.414-4.66.355-3.684.301-2.535 1.13-1.164 2.141.375c.32.488.527.96.66 1.41C1.336 3.777-.246 6.332.562 7.121a.65.65 0 00.473.188c.3 0 .637-.149.996-.43C3.043 6.03 4.098 4.113 3.59 1.934c.207-.262.414-.543.637-.825.378-.468 2.707-3.195 4.171-4.906a.36.36 0 00-.035-.508zm-6.11 9.828c-.507.754-1.015 1.055-1.183 1.07-.074-.261.168-1.35 1.918-3.831a4.724 4.724 0 01-.734 2.761zm0 0"/></symbol></defs><g fill="#fff"><use xlink:href="#a" x="17.041" y="23.25"/><use xlink:href="#b" x="33.126" y="23.25"/><use xlink:href="#c" x="38.8" y="23.25"/><use xlink:href="#d" x="41.657" y="23.25"/><use xlink:href="#e" x="47.67" y="23.25"/><use xlink:href="#f" x="55.167" y="23.25"/><use xlink:href="#g" x="60.635" y="23.25"/><use xlink:href="#h" x="66.404" y="23.25"/><use xlink:href="#i" x="81.06" y="23.25"/><use xlink:href="#j" x="88.05" y="23.25"/><use xlink:href="#i" x="96.92" y="23.25"/><use xlink:href="#g" x="103.91" y="23.25"/><use xlink:href="#k" x="109.678" y="23.25"/><use xlink:href="#d" x="127.304" y="23.25"/><use xlink:href="#c" x="133.317" y="23.25"/><use xlink:href="#l" x="136.173" y="23.25"/><use xlink:href="#m" x="142.9" y="23.25"/><use xlink:href="#n" x="145.399" y="23.25"/><use xlink:href="#d" x="150.153" y="23.25"/><use xlink:href="#o" x="156.166" y="23.25"/><use xlink:href="#p" x="162.874" y="23.25"/></g></svg>