<svg data-name="Layer 1" xmlns="http://www.w3.org/2000/svg" viewBox="0 0 400 300" width="406" height="306" class="illustration"><path d="M286.63 221.35s-3.49-7.46 1.1-10.18 11.83 2.21 10 6a8.27 8.27 0 01-6 4.22z" fill="#01E2C7" opacity=".73"/><path d="M253.94 125.26s17 26.08 0 76.89M144.16 141s-20.43 24-11.75 36 30.46 1.6 37.57-21.63" fill="none" stroke="#24285b" stroke-linecap="round" stroke-linejoin="round" stroke-width="8"/><path d="M137.69 135.16s-8.48 1.35-7.52 7.74 10.89 14.66 17.82 12 3.32-13.9 3.32-13.9z" fill="#ffd200"/><path d="M137.69 135.16s-8.48 1.35-7.52 7.74 10.89 14.66 17.82 12 3.32-13.9 3.32-13.9z" fill="#fff" opacity=".44"/><path d="M172.51 82.61a10.12 10.12 0 00-10.13-10.13 9.87 9.87 0 00-1.63.14 13.63 13.63 0 00-12-7.19h-.5a16.38 16.38 0 00.5-3.92 16.21 16.21 0 10-32.42 0 16.38 16.38 0 00.5 3.92h-.5a13.66 13.66 0 000 27.31h47.37v-.1a10.11 10.11 0 008.81-10.03zM251 61.47a7.55 7.55 0 017.55-7.55 6.89 6.89 0 011.21.11 10.18 10.18 0 019-5.36h.37a12.31 12.31 0 01-.37-2.93 12.09 12.09 0 1124.17 0 11.83 11.83 0 01-.38 2.93h.38a10.18 10.18 0 010 20.36h-35.41V69a7.55 7.55 0 01-6.52-7.53z" fill="#efefef"/><ellipse cx="210.19" cy="235.87" rx="119.13" ry="12.31" fill="#e6e6e6" opacity=".45"/><path d="M225.09 164.05s.59 30.87-5.63 52.54" fill="none" stroke="#24285b" stroke-linecap="round" stroke-linejoin="round" stroke-width="8"/><path fill="#ffd200" d="M231.78 194.92h-21.14v40.33h40.31l-21.46-13.16 2.29-27.17z"/><path d="M192.67 164.05s-6.22 30.87 0 52.54" fill="none" stroke="#24285b" stroke-linecap="round" stroke-linejoin="round" stroke-width="8"/><circle cx="204.61" cy="114.83" r="62.21" fill="#01E2C7"/><path d="M242.19 65.37A62.2 62.2 0 01156.13 154a62.21 62.21 0 1086.06-88.6z" opacity=".09"/><ellipse cx="183.53" cy="103.95" rx="6" ry="13.24" transform="rotate(-11.37 183.616 104.003)" fill="#24285b"/><ellipse cx="219.46" cy="96.72" rx="6" ry="13.24" transform="rotate(-11.37 219.539 96.775)" fill="#24285b"/><path d="M241.49 146.54s-6.71-24-33.76-17.7S184.44 158 184.44 158" fill="none" stroke="#24285b" stroke-linecap="round" stroke-linejoin="round" stroke-width="3"/><ellipse cx="173.54" cy="124.32" rx="9" ry="4.76" transform="rotate(-11.37 173.626 124.363)" fill="#fff" opacity=".36"/><ellipse cx="237.72" cy="111.41" rx="9" ry="4.76" transform="rotate(-11.37 237.812 111.427)" fill="#fff" opacity=".36"/><path fill="#ffd200" d="M179.73 192.82l20.86 3.49-6.66 39.78-39.75-6.65 23.33-9.44 2.22-27.18zM250.41 189.2s-12.7.88-11.56 7.82 6.64 6.93 6.64 6.93-5 13.46 7.22 13.77 18.62-15.14 15-24.54-17.3-3.98-17.3-3.98z"/><path d="M269.44 179.61s-27.43-9.29-26.51 2.14 15.7 9.66 23.86 11.3 12.66-8.78 2.65-13.44z" fill="#ffd200"/><path d="M269.44 179.61s-27.43-9.29-26.51 2.14 15.7 9.66 23.86 11.3 12.66-8.78 2.65-13.44z" fill="#fff" opacity=".44"/><path fill="#24285b" d="M282.1 221.35l1.96 13.38 12.31.05 1.82-13.36-16.09-.07z"/><path d="M174.2 96.72a17.86 17.86 0 008.38-12.44M212.63 78.55a24.65 24.65 0 0013.66 9.36" fill="none" stroke="#24285b" stroke-linecap="round" stroke-linejoin="round" stroke-width="3"/><path d="M137.8 122.57s-4.62-27.91 8.29-24c8.19 2.5.27 16.46 3 24s8.66 19.2 2.81 23.44-16.58 3.57-14.1-23.44z" fill="#ffd200"/><path d="M290.14 221.39s-.28-6.3 5.59-6.73 11.15 9.36 6.64 15.23l-4.6-8.34z" fill="#01E2C7"/><path d="M290.14 221.39s-1.83-7.44-8-6.74-8.58 8.86-5.18 14.22l5.18-7.52z" fill="#01E2C7" opacity=".58"/></svg>