<svg xmlns="http://www.w3.org/2000/svg" xmlns:xlink="http://www.w3.org/1999/xlink" width="512" height="512" viewBox="0 0 384 384" version="1.2"><defs><symbol overflow="visible" id="d"><path d="M6.11-71.234h42.734c7.125 0 12.297 1.617 15.515 4.843 3.227 3.22 4.844 8.387 4.844 15.5v10.188c0 7.125-1.617 12.297-4.844 15.516-3.218 3.218-8.39 4.828-15.515 4.828H24.422V0H6.109zm44.78 20.343c0-4.062-2.038-6.093-6.109-6.093h-20.36v22.39h20.36c4.07 0 6.11-2.035 6.11-6.11zm0 0"/></symbol><symbol overflow="visible" id="e"><path d="M24.422-14.25h37.14V0H6.11v-71.234h18.313zm0 0"/></symbol><symbol overflow="visible" id="f"><path d="M51.906-51.906c0-4.063-2.039-6.094-6.11-6.094H28.5c-4.074 0-6.11 2.031-6.11 6.094v32.578c0 4.062 2.036 6.094 6.11 6.094h17.297c4.07 0 6.11-2.032 6.11-6.094zM70.22-19.328c0 7.117-1.617 12.289-4.844 15.515-3.219 3.22-8.39 4.829-15.516 4.829H24.422c-7.125 0-12.297-1.61-15.516-4.829-3.219-3.226-4.828-8.398-4.828-15.515v-32.578c0-7.114 1.61-12.282 4.828-15.5 3.219-3.227 8.39-4.844 15.516-4.844h25.437c7.125 0 12.297 1.617 15.516 4.844 3.227 3.219 4.844 8.386 4.844 15.5zm0 0"/></symbol><symbol overflow="visible" id="g"><path d="M6.11-71.234h42.734c7.125 0 12.297 1.617 15.515 4.843 3.227 3.22 4.844 8.387 4.844 15.5v9.172c0 5.625-.933 10-2.797 13.125-1.867 3.117-4.836 5.184-8.906 6.203L70.219 0H50.375L38.672-21.375h-14.25V0H6.109zm44.78 20.343c0-4.062-2.038-6.093-6.109-6.093h-20.36v21.359h20.36c4.07 0 6.11-2.031 6.11-6.094zm0 0"/></symbol><clipPath id="a"><path d="M42 114h157v157H42zm0 0"/></clipPath><clipPath id="b"><path d="M117.793 72.11l122.148 117.949-117.949 122.148L-.156 194.257zm0 0"/></clipPath><clipPath id="c"><path d="M117.793 72.11l122.148 117.949-117.949 122.148L-.156 194.257zm0 0"/></clipPath></defs><g clip-path="url(#a)"><g clip-path="url(#b)"><g clip-path="url(#c)"><path d="M198.14 232.504c.012-.465-.16-.941-.59-1.36-13.546-13.078-27.093-26.16-40.64-39.242-.195-.191-.394-.379-.59-.57a179025.382 179025.382 0 0139.637-41.05 1.955 1.955 0 00-.047-2.739l-34.101-32.93a1.955 1.955 0 00-2.739.051l-39.18 40.574c-.152.157-.304.317-.456.473a352977.605 352977.605 0 01-39.246-37.895l-1.989-1.918a1.955 1.955 0 00-2.738.047l-32.926 34.102a1.955 1.955 0 00.047 2.738c13.547 13.078 27.094 26.16 40.64 39.242.196.192.395.38.59.57-12.652 13.106-25.304 26.208-37.953 39.31l-2.035 2.105a1.955 1.955 0 00.047 2.738l34.102 32.93c.757.734 2.004.71 2.738-.051 13.102-13.567 26.2-27.133 39.3-40.7l.688-.71c13.082 12.629 26.164 25.261 39.246 37.894.66.64 1.325 1.278 1.985 1.918a1.96 1.96 0 002.742-.047l32.926-34.101c.418-.434.574-.918.543-1.38" fill="#12f3d8"/></g></g></g><use xlink:href="#d" x="197.996" y="187.248"/><use xlink:href="#e" x="270.244" y="187.248"/><use xlink:href="#f" x="198.071" y="268.356"/><use xlink:href="#g" x="272.354" y="268.356"/></svg>